<?xml version="1.0" standalone="no"?>
<!DOCTYPE svg PUBLIC "-//W3C//DTD SVG 20010904//EN"
 "http://www.w3.org/TR/2001/REC-SVG-20010904/DTD/svg10.dtd">
<svg version="1.0" xmlns="http://www.w3.org/2000/svg"
 width="1309.000000pt" height="316.000000pt" viewBox="0 0 1309.000000 316.000000"
 preserveAspectRatio="xMidYMid meet">
<metadata>
Created by potrace 1.15, written by Peter Selinger 2001-2017
</metadata>
<g transform="translate(0.000000,316.000000) scale(0.100000,-0.100000)"
fill="#ffffff" stroke="none">
<path d="M5817 2922 l-87 -88 0 -974 c0 -934 1 -978 20 -1057 68 -284 279
-502 566 -585 67 -20 102 -23 234 -23 180 0 236 12 375 80 163 79 281 197 360
360 85 176 79 95 83 1210 l3 989 -88 88 -88 89 -298 -3 -299 -3 -25 -29 -25
-30 -17 22 c-29 38 -62 42 -349 42 l-277 0 -88 -88z m1380 -1054 c-3 -1081 2
-1004 -80 -1162 -77 -149 -229 -271 -402 -322 -91 -27 -249 -25 -345 5 -174
53 -322 176 -399 332 -73 148 -71 112 -71 1167 l0 942 650 0 651 0 -4 -962z"/>
<path d="M6470 2590 c-233 -42 -390 -232 -390 -474 0 -129 43 -245 137 -370
25 -34 150 -164 278 -291 134 -133 243 -250 258 -277 38 -65 60 -160 52 -216
-26 -173 -189 -293 -357 -263 -71 12 -138 49 -171 94 -99 131 -84 277 34 337
62 32 149 22 88 -11 -11 -6 -30 -31 -41 -56 -26 -59 -17 -113 26 -161 28 -30
40 -36 88 -40 66 -5 110 14 138 61 24 38 26 104 5 153 -8 20 -101 123 -222
247 -114 117 -226 238 -247 270 -22 31 -43 57 -46 57 -27 0 -27 -162 0 -233
20 -53 67 -114 104 -134 19 -10 16 -15 -31 -67 -101 -110 -122 -268 -55 -410
83 -177 295 -288 492 -257 152 23 280 110 347 237 104 194 77 403 -75 605 -27
35 -155 170 -285 299 -212 211 -239 242 -269 305 -29 61 -33 80 -33 150 1 93
26 154 92 217 109 106 303 112 406 13 128 -123 118 -312 -20 -371 -34 -15 -93
-19 -93 -7 0 4 14 22 32 40 25 26 32 43 36 86 8 103 -48 161 -151 154 -46 -3
-63 -9 -87 -32 -53 -51 -60 -115 -22 -190 8 -16 103 -120 211 -230 108 -110
218 -231 245 -268 33 -46 52 -65 59 -58 5 5 12 43 14 83 7 99 -21 174 -88 242
-27 27 -49 50 -49 51 0 1 20 22 44 47 73 76 108 200 87 310 -44 238 -292 402
-541 358z"/>
<path d="M1255 2327 c-69 -23 -121 -54 -176 -106 -42 -38 -51 -52 -42 -62 9
-9 19 -6 44 15 156 132 352 105 434 -59 26 -53 30 -70 30 -147 0 -47 -3 -89
-7 -93 -4 -4 -115 -10 -247 -14 -261 -7 -271 -10 -271 -65 0 -85 71 -195 154
-239 62 -33 172 -31 248 5 63 29 139 95 173 148 95 152 79 403 -34 533 -66 74
-213 115 -306 84z m265 -539 c0 -34 -44 -119 -76 -150 -33 -31 -93 -58 -126
-58 -39 1 -104 36 -131 72 -14 18 -31 54 -38 80 -21 77 -17 78 192 78 179 0
179 0 179 -22z"/>
<path d="M1715 2328 c-2 -7 -6 -55 -8 -106 -4 -78 -2 -93 10 -90 8 2 24 26 34
53 28 75 46 85 145 85 l84 0 0 -318 c0 -306 -1 -320 -20 -337 -11 -10 -37 -21
-58 -24 -20 -4 -37 -12 -37 -19 0 -6 3 -12 8 -12 4 0 79 0 167 0 136 0 160 2
160 15 0 10 -10 15 -34 15 -19 0 -45 9 -60 21 l-26 20 0 320 0 319 84 0 c101
0 128 -16 149 -88 8 -27 20 -47 28 -47 11 0 13 19 10 100 -2 55 -5 102 -7 104
-3 3 -18 -3 -33 -12 -25 -15 -62 -17 -283 -17 -208 0 -258 3 -274 15 -24 18
-33 19 -39 3z"/>
<path d="M9025 2328 c-2 -7 -5 -50 -7 -96 -3 -67 0 -82 11 -80 8 2 20 21 28
43 21 62 43 75 129 75 l74 0 0 -289 c0 -288 0 -290 -22 -305 -12 -9 -35 -16
-50 -16 -18 0 -28 -5 -28 -15 0 -13 23 -15 150 -15 120 0 150 3 150 14 0 8
-16 15 -41 19 -23 3 -47 10 -53 17 -7 7 -12 102 -14 300 l-3 290 81 0 c92 0
111 -11 131 -79 7 -24 18 -41 27 -41 13 0 14 14 9 91 -3 50 -8 94 -11 97 -3 3
-14 -2 -24 -11 -27 -25 -476 -25 -510 -1 -18 12 -23 13 -27 2z"/>
<path d="M550 2312 c-36 -9 -85 -29 -110 -44 -59 -34 -136 -117 -160 -171
-102 -232 22 -491 262 -547 76 -17 232 -10 320 16 10 3 29 37 47 84 35 91 36
96 17 103 -10 4 -26 -11 -46 -43 -64 -100 -134 -137 -241 -127 -141 12 -243
123 -271 294 -30 181 62 356 210 399 72 21 157 14 212 -17 42 -24 90 -89 90
-122 0 -11 8 -17 21 -17 20 0 21 3 15 63 -13 114 -13 114 -65 127 -80 21 -228
22 -301 2z"/>
<path d="M3448 2318 c-8 -7 -73 -161 -144 -341 -71 -181 -139 -340 -151 -353
-12 -13 -36 -27 -53 -30 -16 -4 -30 -13 -30 -20 0 -11 26 -14 125 -14 104 0
125 2 125 15 0 8 -9 15 -21 15 -33 0 -59 19 -59 43 0 13 13 61 28 107 l29 85
126 3 125 3 22 -58 c11 -32 28 -77 37 -100 19 -52 13 -70 -29 -81 -18 -4 -33
-14 -33 -20 0 -7 3 -12 8 -12 4 0 68 0 142 0 113 0 135 2 135 15 0 9 -9 15
-23 15 -36 0 -68 29 -92 84 -12 28 -71 187 -130 354 -60 166 -111 302 -115
302 -3 0 -13 -6 -22 -12z m31 -280 c24 -73 46 -139 48 -145 4 -10 -20 -13
-102 -13 -81 0 -106 3 -103 13 71 197 102 277 107 277 4 0 26 -60 50 -132z"/>
<path d="M8059 2320 c-59 -10 -79 -21 -117 -64 -87 -100 -52 -224 86 -302 147
-84 172 -109 172 -178 0 -52 -16 -84 -52 -106 -64 -39 -148 -17 -198 52 -16
22 -32 52 -35 69 -6 26 -23 37 -37 24 -7 -7 19 -156 29 -166 11 -11 122 -39
153 -39 15 0 49 7 78 15 164 49 204 238 70 335 -24 17 -73 48 -111 67 -88 46
-117 81 -117 138 0 24 5 55 11 68 24 53 107 73 164 39 30 -19 45 -41 65 -95
17 -47 35 -27 31 34 -5 85 -13 97 -68 104 -26 4 -55 8 -63 10 -8 1 -36 -1 -61
-5z"/>
<path d="M8677 2293 c-8 -16 -63 -152 -122 -303 -111 -281 -138 -330 -184
-330 -12 0 -21 -6 -21 -15 0 -12 20 -15 116 -15 120 0 144 11 74 34 -19 6 -36
18 -38 26 -1 8 10 53 26 100 l29 85 112 0 113 0 29 -79 c38 -104 38 -125 -1
-132 -16 -4 -30 -13 -30 -20 0 -11 26 -14 125 -14 104 0 125 2 125 15 0 8 -8
15 -19 15 -10 0 -30 9 -44 20 -25 20 -54 92 -197 493 -32 91 -58 147 -66 147
-7 0 -20 -12 -27 -27z m42 -236 c23 -67 41 -125 41 -130 0 -4 -40 -7 -90 -7
-54 0 -90 4 -90 10 0 6 18 59 40 119 22 60 40 114 40 120 0 6 4 11 9 11 5 0
28 -55 50 -123z"/>
<path d="M10567 2288 c-8 -18 -62 -156 -122 -307 -59 -151 -116 -282 -127
-293 -10 -10 -32 -21 -48 -25 -17 -3 -30 -12 -30 -19 0 -11 24 -14 115 -14 96
0 115 3 115 15 0 9 -9 15 -24 15 -27 0 -59 27 -53 44 2 6 16 48 31 94 l28 83
111 -3 111 -3 34 -89 c18 -49 31 -95 28 -103 -3 -7 -19 -16 -36 -19 -16 -4
-30 -13 -30 -20 0 -11 26 -14 130 -14 109 0 130 2 130 15 0 9 -9 15 -25 15
-56 0 -59 8 -223 465 -73 203 -89 226 -115 163z m46 -228 c19 -58 39 -113 42
-122 7 -16 -2 -18 -89 -18 -53 0 -96 2 -96 5 0 21 94 255 100 248 4 -4 23 -55
43 -113z"/>
<path d="M2440 2296 c0 -8 16 -16 39 -20 32 -5 41 -11 50 -37 15 -43 15 -565
0 -608 -10 -29 -20 -35 -73 -43 -11 -2 -21 -9 -24 -16 -3 -11 33 -13 200 -10
l204 3 59 30 c77 39 114 90 122 168 4 41 1 69 -11 100 -35 93 -105 128 -266
133 l-105 4 0 132 0 133 101 3 c116 3 143 -9 164 -76 15 -45 22 -53 37 -44 8
5 10 30 6 85 l-6 77 -248 0 c-204 0 -249 -2 -249 -14z m373 -360 c49 -20 76
-57 88 -117 9 -40 9 -65 0 -95 -23 -85 -78 -124 -174 -124 -85 0 -91 11 -95
186 -2 80 -1 152 2 161 5 13 17 15 77 9 39 -3 85 -12 102 -20z"/>
<path d="M3920 2296 c0 -8 16 -16 40 -20 24 -4 43 -14 50 -25 16 -31 14 -612
-3 -635 -7 -9 -32 -20 -55 -23 -30 -4 -42 -10 -42 -22 0 -14 27 -16 280 -13
l279 3 10 37 c13 48 30 125 31 135 0 4 -9 7 -19 7 -13 0 -23 -11 -30 -33 -20
-59 -60 -96 -115 -106 -50 -9 -151 -7 -185 4 -32 10 -41 51 -41 185 l0 130 98
0 c108 0 123 -7 136 -62 3 -16 13 -28 21 -28 12 0 15 20 15 116 0 103 -2 115
-17 112 -9 -2 -20 -16 -25 -33 -12 -47 -32 -55 -135 -55 l-94 0 3 148 3 147
99 3 c58 2 111 -2 127 -8 24 -10 44 -43 63 -102 3 -10 12 -18 21 -18 17 0 20
42 9 124 l-7 46 -258 0 c-213 0 -259 -2 -259 -14z"/>
<path d="M4590 2295 c0 -9 9 -15 24 -15 13 0 34 -9 47 -19 l24 -19 0 -307 0
-307 -24 -19 c-13 -10 -36 -19 -52 -19 -20 0 -29 -5 -29 -16 0 -14 24 -15 203
-12 187 3 206 5 254 27 124 56 174 179 113 279 -24 38 -57 60 -123 82 l-52 17
45 20 c53 24 73 45 95 98 36 85 -17 188 -110 214 -23 6 -122 11 -227 11 -161
0 -188 -2 -188 -15z m365 -43 c58 -34 81 -124 50 -198 -19 -47 -78 -73 -162
-74 l-63 0 0 128 c0 134 6 155 45 165 32 9 97 -2 130 -21z m26 -344 c52 -29
79 -77 79 -141 0 -103 -67 -167 -176 -170 -44 -1 -59 3 -77 21 -20 21 -22 33
-25 174 l-3 151 80 -6 c58 -4 92 -12 122 -29z"/>
<path d="M9680 2297 c0 -9 14 -17 35 -21 19 -4 37 -11 40 -16 3 -6 6 -137 5
-292 0 -311 0 -308 -62 -308 -19 0 -28 -5 -28 -16 0 -14 20 -15 178 -11 203 5
237 13 298 72 102 98 70 229 -67 275 l-53 18 35 15 c59 25 92 69 96 129 5 67
-19 114 -73 142 -34 19 -61 21 -221 24 -156 3 -183 1 -183 -11z m327 -43 c38
-24 57 -63 57 -114 0 -87 -52 -130 -159 -130 l-56 0 3 122 c3 119 4 123 28
136 29 15 94 8 127 -14z m-6 -295 c21 -7 50 -25 66 -41 37 -39 45 -136 14
-185 -27 -43 -73 -65 -138 -67 -82 -2 -87 8 -91 169 l-4 135 58 0 c31 0 74 -5
95 -11z"/>
<path d="M10880 2296 c0 -8 13 -17 29 -21 41 -9 58 -31 155 -201 l86 -151 0
-112 c0 -125 -12 -151 -70 -151 -20 0 -30 -5 -30 -15 0 -13 23 -15 145 -15
122 0 145 2 145 15 0 10 -10 15 -28 15 -15 0 -38 7 -51 16 -22 16 -22 20 -19
148 l3 131 56 95 c108 187 124 208 169 221 22 7 40 18 40 26 0 10 -25 13 -115
13 -91 0 -115 -3 -115 -14 0 -8 15 -17 35 -20 19 -4 37 -11 41 -17 6 -10 -93
-216 -125 -257 -16 -21 -18 -19 -85 98 -85 148 -89 165 -47 175 17 4 31 13 31
21 0 11 -24 14 -125 14 -101 0 -125 -3 -125 -14z"/>
<path d="M11570 2295 c0 -9 9 -15 23 -15 12 0 33 -7 45 -16 22 -15 22 -17 22
-294 0 -277 0 -279 -22 -294 -12 -9 -35 -16 -50 -16 -18 0 -28 -5 -28 -15 0
-13 35 -15 253 -15 l254 0 17 77 c12 58 14 79 5 87 -7 7 -13 7 -15 1 -15 -37
-53 -91 -77 -109 -24 -18 -43 -21 -117 -21 -124 0 -124 0 -128 165 l-4 130 86
0 c73 0 89 -3 106 -20 11 -11 20 -29 20 -40 0 -11 7 -20 15 -20 12 0 15 18 15
100 0 78 -3 100 -14 100 -7 0 -16 -14 -20 -30 -7 -39 -36 -50 -132 -50 l-75 0
3 133 3 132 96 3 c111 3 137 -9 157 -77 10 -30 17 -39 28 -34 12 5 15 15 10
42 -3 20 -6 53 -6 74 l0 37 -235 0 c-202 0 -235 -2 -235 -15z"/>
<path d="M12130 2296 c0 -8 13 -17 29 -21 16 -3 37 -15 46 -25 16 -18 124
-284 211 -522 30 -82 43 -108 57 -108 10 0 20 8 24 18 37 112 233 582 250 603
13 15 37 30 53 34 17 4 30 13 30 21 0 11 -22 14 -115 14 -93 0 -115 -3 -115
-14 0 -8 13 -17 29 -21 50 -11 54 -25 31 -97 -41 -120 -153 -408 -159 -408 -8
0 -182 460 -181 482 0 12 11 19 35 24 20 3 35 12 35 20 0 11 -26 14 -130 14
-106 0 -130 -3 -130 -14z"/>
<path d="M12235 1396 c-26 -20 -384 -23 -415 -4 -10 7 -21 10 -23 8 -2 -3 -7
-38 -11 -77 -5 -58 -3 -73 7 -73 8 0 19 18 26 40 15 50 34 60 110 60 l61 0 0
-231 c0 -130 -4 -238 -10 -248 -5 -10 -25 -22 -45 -25 -74 -14 -32 -26 90 -26
122 0 164 12 90 26 -20 3 -40 15 -45 25 -6 10 -10 118 -10 248 l0 231 70 0
c69 0 71 -1 90 -32 11 -18 20 -41 20 -50 0 -10 7 -18 15 -18 16 0 18 29 7 113
-7 46 -8 47 -27 33z"/>
<path d="M11236 1389 c-51 -12 -90 -42 -110 -83 -42 -88 -3 -163 120 -232 109
-61 139 -109 110 -177 -17 -42 -41 -57 -93 -57 -55 0 -98 30 -124 88 -40 88
-53 48 -24 -75 7 -28 52 -43 132 -43 77 0 134 26 164 73 61 99 25 179 -116
256 -40 22 -83 52 -94 67 -30 38 -28 98 3 129 56 56 133 37 167 -40 33 -74 46
-58 33 38 -6 39 -10 47 -33 51 -63 13 -99 14 -135 5z"/>
<path d="M7860 1371 c0 -4 14 -12 32 -17 43 -13 48 -36 48 -224 -1 -85 4 -170
9 -189 28 -92 102 -136 219 -129 88 5 139 36 173 105 21 43 24 65 29 226 5
173 6 180 29 198 13 10 29 19 37 19 8 0 14 5 14 10 0 6 -40 10 -100 10 -97 0
-130 -12 -71 -25 52 -11 56 -24 56 -194 0 -176 -13 -231 -66 -275 -70 -59
-187 -36 -231 46 -21 39 -23 59 -26 206 -4 195 -2 208 38 217 67 15 37 25 -74
25 -64 0 -116 -4 -116 -9z"/>
<path d="M8490 1371 c0 -5 11 -12 25 -15 14 -4 34 -15 45 -26 19 -19 20 -34
20 -234 0 -232 -1 -238 -56 -252 -53 -14 -18 -24 81 -24 102 0 136 12 75 25
-56 12 -61 32 -58 233 l3 182 183 -225 c101 -124 190 -225 198 -225 12 0 14
39 14 255 0 242 1 256 20 275 11 11 29 20 40 20 11 0 20 5 20 10 0 6 -42 10
-105 10 -101 0 -137 -11 -75 -23 55 -11 61 -35 58 -230 l-3 -175 -178 214
-179 214 -64 0 c-35 0 -64 -4 -64 -9z"/>
<path d="M9150 1370 c0 -5 9 -10 20 -10 11 0 29 -9 40 -20 19 -19 20 -33 20
-236 0 -123 -4 -223 -10 -234 -5 -10 -23 -21 -40 -25 -63 -14 -26 -25 85 -25
110 0 146 10 88 25 -53 13 -53 11 -53 256 0 224 0 228 22 243 12 9 30 16 40
16 10 0 18 5 18 10 0 6 -45 10 -115 10 -70 0 -115 -4 -115 -10z"/>
<path d="M9430 1371 c0 -5 13 -14 29 -19 38 -13 46 -30 152 -307 52 -137 93
-231 102 -233 9 -2 22 18 37 60 12 35 56 146 97 248 74 183 109 240 148 240 8
0 15 5 15 10 0 6 -40 10 -100 10 -102 0 -126 -9 -67 -27 27 -8 32 -14 31 -39
-1 -25 -110 -331 -132 -371 -6 -10 -33 50 -86 188 -71 189 -76 204 -60 216 10
7 24 13 31 13 7 0 13 5 13 10 0 6 -42 10 -105 10 -58 0 -105 -4 -105 -9z"/>
<path d="M10060 1371 c0 -5 14 -12 31 -16 19 -4 34 -16 40 -32 10 -26 12 -404
3 -440 -4 -16 -19 -27 -45 -35 -22 -6 -39 -15 -39 -20 0 -4 94 -8 210 -8 209
0 210 0 215 23 20 87 22 108 13 113 -12 7 -11 8 -37 -43 -27 -55 -45 -63 -135
-63 -103 0 -106 4 -106 136 l0 105 76 -3 c78 -3 84 -6 98 -51 13 -40 26 -2 26
74 0 64 -3 79 -15 79 -8 0 -15 -8 -15 -18 0 -33 -22 -42 -97 -42 l-73 0 0 110
0 110 84 0 c94 0 106 -6 127 -64 19 -52 35 -35 31 34 l-4 60 -194 0 c-111 0
-194 -4 -194 -9z"/>
<path d="M10550 1370 c0 -5 8 -10 18 -10 10 0 28 -7 40 -16 22 -15 22 -19 22
-243 0 -245 0 -243 -53 -256 -58 -15 -22 -25 88 -25 111 0 148 11 85 25 -42 9
-50 31 -50 130 0 94 4 100 55 87 24 -6 44 -30 98 -111 56 -84 75 -106 110
-121 76 -35 136 -20 75 18 -18 12 -49 42 -69 69 -46 61 -109 160 -109 170 1 4
15 17 32 28 51 33 72 69 72 125 0 59 -23 96 -75 122 -28 15 -61 18 -186 18
-96 0 -153 -4 -153 -10z m282 -35 c29 -12 52 -58 52 -106 2 -85 -39 -127 -130
-136 l-55 -6 3 129 c3 127 3 128 28 134 24 6 67 0 102 -15z"/>
<path d="M11490 1370 c0 -5 8 -10 18 -10 10 0 28 -7 40 -16 22 -15 22 -19 22
-243 0 -245 0 -243 -53 -256 -58 -15 -22 -25 88 -25 111 0 148 11 84 25 -19 4
-34 16 -40 32 -10 28 -11 405 0 443 4 16 17 28 39 34 60 17 32 26 -83 26 -70
0 -115 -4 -115 -10z"/>
<path d="M12300 1373 c0 -5 15 -15 33 -23 33 -15 85 -91 160 -234 33 -62 37
-77 36 -140 -1 -103 -8 -119 -52 -129 -70 -17 -37 -27 88 -27 120 0 161 10 93
24 -54 11 -58 19 -58 128 0 108 5 124 92 266 52 86 74 109 109 117 59 13 26
25 -71 25 -60 0 -100 -4 -100 -10 0 -5 8 -10 18 -10 10 0 26 -6 37 -13 17 -13
15 -20 -41 -125 -32 -62 -61 -112 -64 -112 -3 0 -16 19 -28 43 -11 23 -40 75
-63 115 l-41 73 31 12 c17 6 31 15 31 19 0 4 -47 8 -105 8 -58 0 -105 -3 -105
-7z"/>
<path d="M4123 1259 c-7 -7 -67 -10 -176 -7 l-165 3 -4 -53 c-2 -37 1 -52 10
-52 6 0 12 8 12 18 0 34 24 52 78 59 l52 6 -2 -194 -3 -194 -27 -3 c-16 -2
-28 -8 -28 -13 0 -5 43 -9 96 -9 61 0 93 4 89 10 -3 6 -14 10 -24 10 -37 0
-41 18 -41 207 l0 183 34 0 c52 0 82 -15 96 -49 20 -49 31 -36 24 27 -8 66 -7
65 -21 51z"/>
<path d="M4570 1243 c0 -17 -3 -45 -6 -62 -9 -41 13 -42 28 0 12 34 41 49 94
49 l34 0 0 -183 c0 -189 -4 -207 -41 -207 -10 0 -21 -4 -24 -10 -4 -6 31 -10
96 -10 63 0 99 4 94 9 -6 5 -21 11 -35 13 l-25 3 -3 193 -2 192 34 0 c56 0 86
-16 92 -50 12 -55 29 -34 26 30 -3 55 -5 59 -22 50 -28 -15 -313 -13 -328 2
-9 9 -12 5 -12 -19z"/>
<path d="M3024 1251 c-158 -38 -229 -210 -143 -346 40 -63 109 -95 199 -94
110 2 122 7 143 63 9 27 15 51 13 54 -3 2 -25 -17 -48 -42 -55 -60 -102 -70
-172 -36 -68 33 -101 93 -101 185 0 49 6 82 19 108 54 110 215 124 264 24 21
-43 34 -33 26 21 -3 26 -8 49 -9 50 -16 18 -136 26 -191 13z"/>
<path d="M230 1243 c0 -5 13 -15 28 -24 21 -12 46 -52 95 -154 37 -75 67 -145
67 -155 0 -23 -38 -70 -56 -70 -8 0 -23 6 -34 12 -15 10 -22 10 -32 0 -19 -19
3 -46 41 -50 51 -5 86 42 165 221 70 161 97 207 122 207 8 0 14 5 14 10 0 6
-30 10 -70 10 -67 0 -93 -12 -50 -23 12 -3 20 -14 20 -27 0 -24 -71 -210 -80
-210 -3 0 -30 50 -60 111 -51 103 -54 112 -37 123 9 7 17 16 17 20 0 3 -34 6
-75 6 -41 0 -75 -3 -75 -7z"/>
<path d="M670 1241 c0 -5 14 -11 30 -15 l30 -6 -2 -187 c-3 -179 -4 -188 -23
-191 -11 -2 -24 -8 -30 -13 -5 -5 28 -9 83 -9 55 0 92 4 92 10 0 6 -11 10 -24
10 -31 0 -36 15 -36 111 l0 79 115 0 115 0 0 -83 c0 -85 -8 -107 -41 -107 -10
0 -21 -4 -24 -10 -4 -6 27 -10 84 -10 54 0 91 4 91 10 0 6 -8 10 -18 10 -38 0
-42 18 -42 191 0 139 3 170 16 183 8 9 22 16 30 16 8 0 14 5 14 10 0 6 -35 10
-85 10 -50 0 -85 -4 -85 -10 0 -5 9 -10 20 -10 28 0 40 -30 40 -104 l0 -66
-115 0 -115 0 0 73 c0 75 9 97 42 97 10 0 18 5 18 10 0 6 -37 10 -90 10 -49 0
-90 -4 -90 -9z"/>
<path d="M1190 1242 c0 -4 10 -12 23 -17 22 -10 22 -13 22 -195 0 -177 -1
-185 -20 -188 -48 -9 -35 -22 20 -21 l60 0 110 186 110 186 3 -162 c3 -164 -2
-191 -34 -191 -7 0 -16 -4 -19 -10 -4 -6 25 -10 79 -10 51 0 86 4 86 10 0 6
-9 10 -20 10 -33 0 -40 32 -40 199 0 132 3 162 16 175 8 9 22 16 30 16 8 0 14
5 14 10 0 16 -118 13 -122 -4 -5 -23 -203 -345 -212 -346 -4 0 -6 10 -2 23 3
12 6 86 6 164 l0 143 25 6 c50 12 23 24 -55 24 -44 0 -80 -3 -80 -8z"/>
<path d="M1690 1241 c0 -5 11 -12 25 -15 l25 -6 -2 -188 -3 -187 -27 -3 c-16
-2 -28 -8 -28 -13 0 -5 49 -9 113 -9 88 0 121 4 154 19 75 35 97 119 44 172
-16 16 -39 29 -50 29 -11 0 -23 5 -26 10 -3 6 1 10 10 10 30 0 65 46 65 85 0
83 -42 105 -195 105 -58 0 -105 -4 -105 -9z m223 -42 c9 -12 17 -38 17 -59 0
-49 -35 -80 -91 -80 l-39 0 0 79 c0 54 4 81 13 85 24 11 82 -4 100 -25z m4
-185 c35 -22 47 -61 33 -106 -12 -42 -50 -68 -98 -68 -45 0 -52 15 -52 113 l0
90 47 -7 c26 -3 57 -13 70 -22z"/>
<path d="M2080 1241 c0 -5 11 -12 25 -15 l25 -6 -2 -188 -3 -187 -27 -3 c-16
-2 -28 -8 -28 -13 0 -5 67 -9 159 -9 l159 0 11 46 c13 50 6 71 -13 40 -30 -53
-53 -66 -114 -66 -32 0 -63 5 -70 12 -7 7 -12 44 -12 95 l0 84 57 -3 c48 -3
59 -7 69 -26 20 -41 24 -36 24 31 0 38 -4 67 -10 67 -5 0 -10 -7 -10 -15 0
-21 -33 -35 -85 -35 l-46 0 3 88 3 87 34 3 c66 7 100 -6 118 -44 21 -43 38
-44 29 -3 -3 17 -6 40 -6 50 0 18 -10 19 -145 19 -80 0 -145 -4 -145 -9z"/>
<path d="M2460 1242 c0 -4 10 -12 23 -17 21 -10 22 -15 25 -175 3 -186 0 -210
-28 -210 -10 0 -22 -4 -25 -10 -4 -6 27 -10 84 -10 50 0 91 4 91 9 0 5 -12 11
-27 13 -28 3 -28 4 -31 81 l-3 78 36 -7 c48 -9 119 19 146 57 27 39 28 112 1
148 -10 14 -34 31 -53 38 -37 13 -239 18 -239 5z m227 -47 c17 -19 23 -39 23
-71 0 -62 -40 -104 -99 -104 l-41 0 0 98 c0 54 3 102 8 106 15 16 87 -3 109
-29z"/>
<path d="M3280 1240 c0 -5 8 -10 19 -10 38 0 42 -21 39 -201 -3 -169 -4 -174
-26 -185 -40 -20 -36 -24 26 -24 34 0 62 4 62 10 0 5 48 89 108 187 l107 177
3 -163 c3 -170 -2 -191 -39 -191 -11 0 -19 -4 -19 -10 0 -6 35 -10 85 -10 50
0 85 4 85 10 0 6 -8 10 -18 10 -38 0 -42 18 -42 195 0 177 4 195 42 195 10 0
18 5 18 10 0 6 -25 10 -57 9 l-58 0 -105 -179 c-58 -99 -108 -179 -112 -180
-10 0 -11 255 -2 299 5 22 14 33 30 37 50 13 21 24 -61 24 -50 0 -85 -4 -85
-10z"/>
<path d="M4190 1240 c0 -5 8 -10 18 -10 38 0 42 -18 42 -195 0 -176 -4 -195
-41 -195 -10 0 -21 -4 -24 -10 -4 -7 51 -10 158 -10 l164 0 10 50 c8 40 7 50
-3 50 -8 0 -14 -6 -14 -14 0 -7 -11 -25 -25 -40 -21 -22 -32 -26 -83 -26 -32
0 -63 5 -70 12 -7 7 -12 44 -12 95 l0 83 49 0 c47 0 81 -17 81 -41 0 -5 5 -9
10 -9 6 0 10 27 10 60 0 33 -4 60 -10 60 -5 0 -10 -4 -10 -9 0 -24 -34 -41
-81 -41 l-50 0 3 88 c3 99 6 101 95 87 39 -6 47 -11 59 -41 8 -19 16 -34 19
-34 3 0 5 23 5 50 l0 50 -150 0 c-93 0 -150 -4 -150 -10z"/>
<path d="M4980 1240 c0 -5 8 -10 18 -10 38 0 42 -18 42 -195 0 -177 -4 -195
-42 -195 -10 0 -18 -4 -18 -10 0 -6 35 -10 85 -10 50 0 85 4 85 10 0 6 -9 10
-20 10 -33 0 -40 32 -40 199 0 132 3 162 16 175 8 9 22 16 30 16 8 0 14 5 14
10 0 6 -35 10 -85 10 -50 0 -85 -4 -85 -10z"/>
</g>
</svg>
